<svg width="277" height="58" viewBox="0 0 277 58" fill="none" xmlns="http://www.w3.org/2000/svg">
<path d="M27.6356 57.44C22.1956 57.44 17.3956 56.32 13.2356 54.08C9.12896 51.7867 5.90229 48.56 3.55563 44.4C1.26229 40.1867 0.115625 35.2267 0.115625 29.52C0.115625 23.9733 1.26229 19.12 3.55563 14.96C5.84896 10.8 9.15563 7.57333 13.4756 5.28C17.849 2.93333 23.129 1.76 29.3156 1.76C32.1423 1.76 34.7556 2.08 37.1556 2.72C39.609 3.36 41.929 4.29333 44.1156 5.52L44.4356 16.72H43.6356L39.1556 8.4C38.4623 7.06667 37.8223 6.10667 37.2356 5.52C36.649 4.93333 35.9023 4.48 34.9956 4.16C34.1423 3.89333 33.3423 3.70666 32.5956 3.6C31.9023 3.44 30.969 3.36 29.7956 3.36C26.489 3.36 23.5556 4.24 20.9956 6C18.489 7.76 16.5423 10.56 15.1556 14.4C13.769 18.24 13.0756 23.28 13.0756 29.52C13.0756 35.7067 13.7156 40.7467 14.9956 44.64C16.329 48.5333 18.1956 51.3867 20.5956 53.2C22.9956 54.96 25.769 55.84 28.9156 55.84C29.3956 55.84 29.849 55.8133 30.2756 55.76C30.7556 55.6533 31.209 55.5467 31.6356 55.44C32.649 55.28 33.3156 54.8533 33.6356 54.16C33.9556 53.4667 34.1156 52.64 34.1156 51.68V35.84C34.1156 33.76 33.049 32.48 30.9156 32L27.2356 31.04V30.24H49.7956V31.04L48.6756 31.36C46.649 32 45.6356 33.3333 45.6356 35.36V52.72C42.8623 54.2667 40.0356 55.44 37.1556 56.24C34.329 57.04 31.1556 57.44 27.6356 57.44ZM72.8556 57.2C68.8023 57.2 65.2823 56.3733 62.2956 54.72C59.309 53.0133 56.989 50.6133 55.3356 47.52C53.7356 44.4267 52.9356 40.8 52.9356 36.64C52.9356 32.48 53.789 28.88 55.4956 25.84C57.2556 22.8 59.629 20.4533 62.6156 18.8C65.6556 17.1467 69.069 16.32 72.8556 16.32C76.6423 16.32 80.029 17.1467 83.0156 18.8C86.0023 20.4 88.349 22.72 90.0556 25.76C91.8156 28.8 92.6956 32.4267 92.6956 36.64C92.6956 40.8533 91.869 44.5067 90.2156 47.6C88.6156 50.64 86.3223 53.0133 83.3356 54.72C80.4023 56.3733 76.909 57.2 72.8556 57.2ZM72.8556 55.6C74.7223 55.6 76.2156 55.0667 77.3356 54C78.4556 52.9333 79.2556 51.04 79.7356 48.32C80.269 45.6 80.5356 41.76 80.5356 36.8C80.5356 31.7867 80.269 27.92 79.7356 25.2C79.2556 22.48 78.4556 20.5867 77.3356 19.52C76.2156 18.4533 74.7223 17.92 72.8556 17.92C70.989 17.92 69.469 18.4533 68.2956 19.52C67.1756 20.5867 66.349 22.48 65.8156 25.2C65.3356 27.92 65.0956 31.7867 65.0956 36.8C65.0956 41.76 65.3356 45.6 65.8156 48.32C66.349 51.04 67.1756 52.9333 68.2956 54C69.469 55.0667 70.989 55.6 72.8556 55.6ZM94.8069 56V55.2L96.4069 54.64C97.4735 54.32 98.1669 53.84 98.4869 53.2C98.8602 52.56 99.0469 51.7067 99.0469 50.64V8.72C99.0469 7.65333 98.8602 6.8 98.4869 6.16C98.1135 5.52 97.3935 5.01333 96.3269 4.64L94.8069 4V3.2H114.247C122.194 3.2 127.927 4.66666 131.447 7.6C135.02 10.48 136.807 14.2933 136.807 19.04C136.807 22.08 136.06 24.88 134.567 27.44C133.127 29.9467 130.727 31.9467 127.367 33.44C124.007 34.9333 119.474 35.68 113.767 35.68H111.047V50.4C111.047 52.48 112.087 53.84 114.167 54.48L116.567 55.2V56H94.8069ZM111.047 34.08H114.087C116.7 34.08 118.834 33.6533 120.487 32.8C122.14 31.9467 123.367 30.4533 124.167 28.32C124.967 26.1867 125.367 23.2267 125.367 19.44C125.367 15.6 124.914 12.6133 124.007 10.48C123.154 8.34667 121.874 6.88 120.167 6.08C118.46 5.22666 116.327 4.8 113.767 4.8H111.047V34.08ZM149.481 12.16C147.668 12.16 146.121 11.6 144.841 10.48C143.615 9.30667 143.001 7.84 143.001 6.08C143.001 4.26666 143.615 2.8 144.841 1.68C146.121 0.559997 147.668 -3.8147e-06 149.481 -3.8147e-06C151.295 -3.8147e-06 152.815 0.559997 154.041 1.68C155.268 2.8 155.881 4.26666 155.881 6.08C155.881 7.84 155.268 9.30667 154.041 10.48C152.815 11.6 151.295 12.16 149.481 12.16ZM140.041 56V55.2L141.161 54.88C142.228 54.56 142.948 54.08 143.321 53.44C143.748 52.8 143.961 51.9467 143.961 50.88V25.84C143.961 24.72 143.748 23.8933 143.321 23.36C142.948 22.7733 142.228 22.3733 141.161 22.16L140.041 21.92V21.12L154.681 16.4L155.481 17.2L155.241 28.56V50.96C155.241 52.0267 155.428 52.88 155.801 53.52C156.228 54.16 156.948 54.64 157.961 54.96L158.761 55.2V56H140.041ZM162.543 56V54.72L184.383 19.12H172.303C170.916 19.12 169.823 19.4933 169.023 20.24C168.223 20.9867 167.476 21.9733 166.783 23.2L163.903 28.56H163.103L163.663 17.52H195.663V18.64L174.303 54.4H186.863C188.57 54.4 189.823 54 190.623 53.2C191.423 52.4 192.17 51.3067 192.863 49.92L195.663 44H196.463L195.743 56H162.543ZM199.731 56V54.72L221.571 19.12H209.491C208.104 19.12 207.011 19.4933 206.211 20.24C205.411 20.9867 204.664 21.9733 203.971 23.2L201.091 28.56H200.291L200.851 17.52H232.851V18.64L211.491 54.4H224.051C225.757 54.4 227.011 54 227.811 53.2C228.611 52.4 229.357 51.3067 230.051 49.92L232.851 44H233.651L232.931 56H199.731ZM248.358 57.2C245.265 57.2 242.651 56.32 240.518 54.56C238.438 52.8 237.398 50.2667 237.398 46.96C237.398 44.4533 238.678 42.16 241.238 40.08C243.798 37.9467 247.825 36.3467 253.318 35.28C254.171 35.12 255.131 34.96 256.198 34.8C257.265 34.5867 258.385 34.3733 259.558 34.16V27.84C259.558 24.2133 259.105 21.68 258.198 20.24C257.345 18.7467 255.985 18 254.118 18C252.838 18 251.825 18.4267 251.078 19.28C250.331 20.08 249.851 21.4933 249.638 23.52L249.478 24.4C249.371 26.6933 248.811 28.3733 247.798 29.44C246.785 30.5067 245.531 31.04 244.038 31.04C242.651 31.04 241.505 30.6133 240.598 29.76C239.691 28.9067 239.238 27.76 239.238 26.32C239.238 24.1333 239.985 22.2933 241.478 20.8C243.025 19.3067 245.051 18.1867 247.558 17.44C250.065 16.6933 252.785 16.32 255.718 16.32C260.465 16.32 264.118 17.4933 266.678 19.84C269.291 22.1333 270.598 25.8933 270.598 31.12V48.8C270.598 51.2 271.718 52.4 273.958 52.4H275.718L276.438 53.04C275.425 54.32 274.305 55.3067 273.078 56C271.905 56.6933 270.225 57.04 268.038 57.04C265.691 57.04 263.825 56.5067 262.438 55.44C261.105 54.32 260.225 52.8533 259.798 51.04C258.198 52.7467 256.545 54.2133 254.838 55.44C253.185 56.6133 251.025 57.2 248.358 57.2ZM253.238 52.32C254.305 52.32 255.291 52.08 256.198 51.6C257.158 51.0667 258.278 50.2667 259.558 49.2V35.76C259.025 35.8667 258.491 35.9733 257.958 36.08C257.425 36.1867 256.811 36.2933 256.118 36.4C253.665 37.04 251.691 38.1333 250.198 39.68C248.758 41.1733 248.038 43.2 248.038 45.76C248.038 47.9467 248.545 49.6 249.558 50.72C250.571 51.7867 251.798 52.32 253.238 52.32Z" fill="white"/>
</svg>
